<svg xmlns="http://www.w3.org/2000/svg" viewBox="0 0 64 64" fill="none">
  <circle cx="32" cy="32" r="30" fill="#DCFCE7"/>
  <path d="M14 24h36l-4 30H18L14 24z" fill="#4ADE80" stroke="#16A34A" stroke-width="2"/>
  <rect x="14" y="22" width="36" height="6" rx="2" fill="#16A34A"/>
  <path d="M22 22c0-6 4-10 10-10s10 4 10 10" stroke="#166534" stroke-width="3" fill="none" stroke-linecap="round"/>
  <path d="M32 36c-6-6-12-2-12 4 0 4 6 8 12 14 6-6 12-10 12-14 0-6-6-10-12-4z" fill="#FEF2F2" stroke="#EF4444" stroke-width="1.5"/>
  <circle cx="22" cy="32" r="2" fill="#FEF9C3"/>
  <circle cx="42" cy="34" r="2" fill="#FEF9C3"/>
</svg>
